<?xml version="1.0" encoding="utf-8"?>
<!-- Generator: Adobe Illustrator 27.2.0, SVG Export Plug-In . SVG Version: 6.00 Build 0)  -->
<svg version="1.1" id="Layer_1" xmlns="http://www.w3.org/2000/svg" xmlns:xlink="http://www.w3.org/1999/xlink" x="0px" y="0px"
	 viewBox="0 0 512 512" style="enable-background:new 0 0 512 512;" xml:space="preserve">
<style type="text/css">
	.st0{fill:white;}
</style>
<g>
	<path class="st0" d="M48.76,243.81c0-114.45,92.78-207.24,207.24-207.24c114.45,0,207.24,92.78,207.24,207.24v48.76h-54.86
		c-10.1,0-18.29,8.19-18.29,18.29v158.48c0,10.1,8.19,18.29,18.29,18.29h18.29c40.4,0,73.14-32.75,73.14-73.14V243.81
		C499.81,109.16,390.65,0,256,0C121.35,0,12.19,109.16,12.19,243.81v170.67c0,40.4,32.75,73.14,73.14,73.14h18.29
		c10.1,0,18.29-8.19,18.29-18.29V310.86c0-10.1-8.19-18.29-18.29-18.29H48.76V243.81z M274.29,237.71c0-10.1-8.19-18.29-18.29-18.29
		c-10.1,0-18.29,8.19-18.29,18.29v256c0,10.1,8.19,18.29,18.29,18.29c10.1,0,18.29-8.19,18.29-18.29V237.71z M176.76,292.57
		c10.1,0,18.29,8.19,18.29,18.29v109.72c0,10.1-8.19,18.29-18.29,18.29c-10.1,0-18.29-8.19-18.29-18.29V310.86
		C158.48,300.76,166.66,292.57,176.76,292.57z M353.52,310.86c0-10.1-8.19-18.29-18.29-18.29c-10.1,0-18.29,8.19-18.29,18.29v109.72
		c0,10.1,8.19,18.29,18.29,18.29c10.1,0,18.29-8.19,18.29-18.29V310.86z"/>
</g>
</svg>
